<mxfile host="app.diagrams.net" agent="Mozilla/5.0 (Windows NT 10.0; Win64; x64) AppleWebKit/537.36 (KHTML, like Gecko) Chrome/138.0.0.0 Safari/537.36 SberBrowser/30.0.0.0" version="28.1.1">
  <diagram name="Страница — 1" id="eDHokSOOl7qRztb6YLrN">
    <mxGraphModel dx="1431" dy="853" grid="1" gridSize="10" guides="1" tooltips="1" connect="1" arrows="1" fold="1" page="1" pageScale="1" pageWidth="1169" pageHeight="827" math="0" shadow="0">
      <root>
        <mxCell id="0" />
        <mxCell id="1" parent="0" />
        <mxCell id="IZnIiaBtFyeUTnAaP6xX-13" value="" style="edgeStyle=orthogonalEdgeStyle;rounded=0;orthogonalLoop=1;jettySize=auto;html=1;endArrow=none;endFill=0;" edge="1" parent="1" source="IZnIiaBtFyeUTnAaP6xX-14" target="IZnIiaBtFyeUTnAaP6xX-38">
          <mxGeometry relative="1" as="geometry">
            <Array as="points">
              <mxPoint x="40" y="490" />
              <mxPoint x="40" y="400" />
            </Array>
          </mxGeometry>
        </mxCell>
        <mxCell id="IZnIiaBtFyeUTnAaP6xX-15" value="" style="rounded=0;orthogonalLoop=1;jettySize=auto;html=1;endArrow=none;endFill=0;edgeStyle=orthogonalEdgeStyle;" edge="1" parent="1" source="IZnIiaBtFyeUTnAaP6xX-12" target="IZnIiaBtFyeUTnAaP6xX-38">
          <mxGeometry relative="1" as="geometry">
            <mxPoint x="-220" y="395" as="sourcePoint" />
            <mxPoint x="-150" y="350" as="targetPoint" />
            <Array as="points">
              <mxPoint x="40" y="460" />
              <mxPoint x="40" y="400" />
            </Array>
          </mxGeometry>
        </mxCell>
        <mxCell id="IZnIiaBtFyeUTnAaP6xX-1" value="Больница" style="text;html=1;align=center;verticalAlign=middle;whiteSpace=wrap;rounded=0;fontSize=23;" vertex="1" parent="1">
          <mxGeometry x="310" y="30" width="130" height="30" as="geometry" />
        </mxCell>
        <mxCell id="IZnIiaBtFyeUTnAaP6xX-2" value="&lt;font style=&quot;font-size: 16px;&quot;&gt;Нотация Чена&lt;/font&gt;" style="text;html=1;align=center;verticalAlign=middle;whiteSpace=wrap;rounded=0;fontSize=18;" vertex="1" parent="1">
          <mxGeometry x="300" y="80" width="130" height="30" as="geometry" />
        </mxCell>
        <mxCell id="IZnIiaBtFyeUTnAaP6xX-3" value="Пациент" style="rounded=1;whiteSpace=wrap;html=1;" vertex="1" parent="1">
          <mxGeometry x="290" y="690" width="150" height="50" as="geometry" />
        </mxCell>
        <mxCell id="IZnIiaBtFyeUTnAaP6xX-4" value="" style="edgeStyle=orthogonalEdgeStyle;rounded=0;orthogonalLoop=1;jettySize=auto;html=1;endArrow=none;endFill=0;" edge="1" parent="1" source="IZnIiaBtFyeUTnAaP6xX-5" target="IZnIiaBtFyeUTnAaP6xX-3">
          <mxGeometry relative="1" as="geometry">
            <Array as="points">
              <mxPoint x="250" y="670" />
              <mxPoint x="250" y="715" />
            </Array>
          </mxGeometry>
        </mxCell>
        <mxCell id="IZnIiaBtFyeUTnAaP6xX-5" value="Id" style="ellipse;whiteSpace=wrap;html=1;fontStyle=4" vertex="1" parent="1">
          <mxGeometry x="100" y="650" width="120" height="40" as="geometry" />
        </mxCell>
        <mxCell id="IZnIiaBtFyeUTnAaP6xX-6" value="" style="edgeStyle=orthogonalEdgeStyle;rounded=0;orthogonalLoop=1;jettySize=auto;html=1;endArrow=none;endFill=0;" edge="1" parent="1" source="IZnIiaBtFyeUTnAaP6xX-7" target="IZnIiaBtFyeUTnAaP6xX-3">
          <mxGeometry relative="1" as="geometry">
            <Array as="points">
              <mxPoint x="250" y="700" />
              <mxPoint x="250" y="715" />
            </Array>
          </mxGeometry>
        </mxCell>
        <mxCell id="IZnIiaBtFyeUTnAaP6xX-7" value="ФИО" style="ellipse;whiteSpace=wrap;html=1;fontStyle=0" vertex="1" parent="1">
          <mxGeometry x="100" y="680" width="120" height="40" as="geometry" />
        </mxCell>
        <mxCell id="IZnIiaBtFyeUTnAaP6xX-8" value="" style="edgeStyle=orthogonalEdgeStyle;rounded=0;orthogonalLoop=1;jettySize=auto;html=1;endArrow=none;endFill=0;" edge="1" parent="1" source="IZnIiaBtFyeUTnAaP6xX-9" target="IZnIiaBtFyeUTnAaP6xX-3">
          <mxGeometry relative="1" as="geometry">
            <Array as="points">
              <mxPoint x="250" y="730" />
              <mxPoint x="250" y="715" />
            </Array>
          </mxGeometry>
        </mxCell>
        <mxCell id="IZnIiaBtFyeUTnAaP6xX-9" value="Дата рождения" style="ellipse;whiteSpace=wrap;html=1;fontStyle=0" vertex="1" parent="1">
          <mxGeometry x="100" y="710" width="120" height="40" as="geometry" />
        </mxCell>
        <mxCell id="IZnIiaBtFyeUTnAaP6xX-10" value="" style="edgeStyle=orthogonalEdgeStyle;rounded=0;orthogonalLoop=1;jettySize=auto;html=1;endArrow=none;endFill=0;" edge="1" parent="1" source="IZnIiaBtFyeUTnAaP6xX-11" target="IZnIiaBtFyeUTnAaP6xX-3">
          <mxGeometry relative="1" as="geometry">
            <Array as="points">
              <mxPoint x="250" y="760" />
              <mxPoint x="250" y="715" />
            </Array>
          </mxGeometry>
        </mxCell>
        <mxCell id="IZnIiaBtFyeUTnAaP6xX-11" value="Полис" style="ellipse;whiteSpace=wrap;html=1;fontStyle=0" vertex="1" parent="1">
          <mxGeometry x="100" y="740" width="120" height="40" as="geometry" />
        </mxCell>
        <mxCell id="IZnIiaBtFyeUTnAaP6xX-12" value="Дата поступления" style="ellipse;whiteSpace=wrap;html=1;fontStyle=0" vertex="1" parent="1">
          <mxGeometry x="60" y="440" width="120" height="40" as="geometry" />
        </mxCell>
        <mxCell id="IZnIiaBtFyeUTnAaP6xX-14" value="Дата выписки" style="ellipse;whiteSpace=wrap;html=1;fontStyle=0" vertex="1" parent="1">
          <mxGeometry x="60" y="470" width="120" height="40" as="geometry" />
        </mxCell>
        <mxCell id="IZnIiaBtFyeUTnAaP6xX-16" value="Диагноз" style="rounded=1;whiteSpace=wrap;html=1;" vertex="1" parent="1">
          <mxGeometry x="290" y="450" width="150" height="50" as="geometry" />
        </mxCell>
        <mxCell id="IZnIiaBtFyeUTnAaP6xX-17" value="Id" style="ellipse;whiteSpace=wrap;html=1;fontStyle=4" vertex="1" parent="1">
          <mxGeometry x="520" y="440" width="120" height="40" as="geometry" />
        </mxCell>
        <mxCell id="IZnIiaBtFyeUTnAaP6xX-18" value="Наименование" style="ellipse;whiteSpace=wrap;html=1;fontStyle=0" vertex="1" parent="1">
          <mxGeometry x="520" y="470" width="120" height="40" as="geometry" />
        </mxCell>
        <mxCell id="IZnIiaBtFyeUTnAaP6xX-20" value="" style="edgeStyle=orthogonalEdgeStyle;rounded=0;orthogonalLoop=1;jettySize=auto;html=1;endArrow=none;endFill=0;" edge="1" parent="1" source="IZnIiaBtFyeUTnAaP6xX-18" target="IZnIiaBtFyeUTnAaP6xX-16">
          <mxGeometry relative="1" as="geometry">
            <Array as="points">
              <mxPoint x="470" y="490" />
              <mxPoint x="470" y="475" />
            </Array>
          </mxGeometry>
        </mxCell>
        <mxCell id="IZnIiaBtFyeUTnAaP6xX-22" value="" style="rounded=0;orthogonalLoop=1;jettySize=auto;html=1;endArrow=none;endFill=0;edgeStyle=orthogonalEdgeStyle;" edge="1" parent="1" source="IZnIiaBtFyeUTnAaP6xX-17" target="IZnIiaBtFyeUTnAaP6xX-16">
          <mxGeometry relative="1" as="geometry">
            <mxPoint x="360" y="430" as="sourcePoint" />
            <mxPoint x="405" y="520" as="targetPoint" />
            <Array as="points">
              <mxPoint x="470" y="460" />
              <mxPoint x="470" y="475" />
            </Array>
          </mxGeometry>
        </mxCell>
        <mxCell id="IZnIiaBtFyeUTnAaP6xX-23" value="Отделение" style="rounded=1;whiteSpace=wrap;html=1;" vertex="1" parent="1">
          <mxGeometry x="290" y="170" width="150" height="50" as="geometry" />
        </mxCell>
        <mxCell id="IZnIiaBtFyeUTnAaP6xX-24" value="Id" style="ellipse;whiteSpace=wrap;html=1;fontStyle=4" vertex="1" parent="1">
          <mxGeometry x="520" y="160" width="120" height="40" as="geometry" />
        </mxCell>
        <mxCell id="IZnIiaBtFyeUTnAaP6xX-25" value="Наименование" style="ellipse;whiteSpace=wrap;html=1;fontStyle=0" vertex="1" parent="1">
          <mxGeometry x="520" y="190" width="120" height="40" as="geometry" />
        </mxCell>
        <mxCell id="IZnIiaBtFyeUTnAaP6xX-26" value="Адрес" style="ellipse;whiteSpace=wrap;html=1;fontStyle=0" vertex="1" parent="1">
          <mxGeometry x="520" y="220" width="120" height="40" as="geometry" />
        </mxCell>
        <mxCell id="IZnIiaBtFyeUTnAaP6xX-27" value="" style="edgeStyle=orthogonalEdgeStyle;rounded=0;orthogonalLoop=1;jettySize=auto;html=1;endArrow=none;endFill=0;" edge="1" parent="1" source="IZnIiaBtFyeUTnAaP6xX-25" target="IZnIiaBtFyeUTnAaP6xX-23">
          <mxGeometry relative="1" as="geometry">
            <Array as="points">
              <mxPoint x="470" y="210" />
              <mxPoint x="470" y="195" />
            </Array>
          </mxGeometry>
        </mxCell>
        <mxCell id="IZnIiaBtFyeUTnAaP6xX-28" value="" style="rounded=0;orthogonalLoop=1;jettySize=auto;html=1;endArrow=none;endFill=0;edgeStyle=orthogonalEdgeStyle;" edge="1" parent="1" source="IZnIiaBtFyeUTnAaP6xX-26" target="IZnIiaBtFyeUTnAaP6xX-23">
          <mxGeometry relative="1" as="geometry">
            <mxPoint x="310" y="140" as="sourcePoint" />
            <mxPoint x="355" y="200" as="targetPoint" />
            <Array as="points">
              <mxPoint x="470" y="240" />
              <mxPoint x="470" y="195" />
            </Array>
          </mxGeometry>
        </mxCell>
        <mxCell id="IZnIiaBtFyeUTnAaP6xX-29" value="" style="rounded=0;orthogonalLoop=1;jettySize=auto;html=1;endArrow=none;endFill=0;edgeStyle=orthogonalEdgeStyle;" edge="1" parent="1" source="IZnIiaBtFyeUTnAaP6xX-24" target="IZnIiaBtFyeUTnAaP6xX-23">
          <mxGeometry relative="1" as="geometry">
            <mxPoint x="360" y="150" as="sourcePoint" />
            <mxPoint x="405" y="240" as="targetPoint" />
            <Array as="points">
              <mxPoint x="470" y="180" />
              <mxPoint x="470" y="195" />
            </Array>
          </mxGeometry>
        </mxCell>
        <mxCell id="IZnIiaBtFyeUTnAaP6xX-30" value="Палата" style="rounded=1;whiteSpace=wrap;html=1;" vertex="1" parent="1">
          <mxGeometry x="290" y="350" width="150" height="50" as="geometry" />
        </mxCell>
        <mxCell id="IZnIiaBtFyeUTnAaP6xX-31" value="Id" style="ellipse;whiteSpace=wrap;html=1;fontStyle=4" vertex="1" parent="1">
          <mxGeometry x="520" y="290" width="120" height="40" as="geometry" />
        </mxCell>
        <mxCell id="IZnIiaBtFyeUTnAaP6xX-32" value="Номер" style="ellipse;whiteSpace=wrap;html=1;fontStyle=0" vertex="1" parent="1">
          <mxGeometry x="520" y="320" width="120" height="40" as="geometry" />
        </mxCell>
        <mxCell id="IZnIiaBtFyeUTnAaP6xX-33" value="Этаж" style="ellipse;whiteSpace=wrap;html=1;fontStyle=0" vertex="1" parent="1">
          <mxGeometry x="520" y="350" width="120" height="40" as="geometry" />
        </mxCell>
        <mxCell id="IZnIiaBtFyeUTnAaP6xX-34" value="" style="edgeStyle=orthogonalEdgeStyle;rounded=0;orthogonalLoop=1;jettySize=auto;html=1;endArrow=none;endFill=0;" edge="1" parent="1" source="IZnIiaBtFyeUTnAaP6xX-32" target="IZnIiaBtFyeUTnAaP6xX-30">
          <mxGeometry relative="1" as="geometry">
            <Array as="points">
              <mxPoint x="470" y="340" />
              <mxPoint x="470" y="375" />
            </Array>
          </mxGeometry>
        </mxCell>
        <mxCell id="IZnIiaBtFyeUTnAaP6xX-35" value="" style="rounded=0;orthogonalLoop=1;jettySize=auto;html=1;endArrow=none;endFill=0;edgeStyle=orthogonalEdgeStyle;" edge="1" parent="1" source="IZnIiaBtFyeUTnAaP6xX-33" target="IZnIiaBtFyeUTnAaP6xX-30">
          <mxGeometry relative="1" as="geometry">
            <mxPoint x="310" y="270" as="sourcePoint" />
            <mxPoint x="355" y="330" as="targetPoint" />
            <Array as="points">
              <mxPoint x="470" y="370" />
              <mxPoint x="470" y="375" />
            </Array>
          </mxGeometry>
        </mxCell>
        <mxCell id="IZnIiaBtFyeUTnAaP6xX-36" value="" style="rounded=0;orthogonalLoop=1;jettySize=auto;html=1;endArrow=none;endFill=0;edgeStyle=orthogonalEdgeStyle;" edge="1" parent="1" source="IZnIiaBtFyeUTnAaP6xX-31" target="IZnIiaBtFyeUTnAaP6xX-30">
          <mxGeometry relative="1" as="geometry">
            <mxPoint x="360" y="280" as="sourcePoint" />
            <mxPoint x="405" y="370" as="targetPoint" />
            <Array as="points">
              <mxPoint x="470" y="310" />
              <mxPoint x="470" y="375" />
            </Array>
          </mxGeometry>
        </mxCell>
        <mxCell id="IZnIiaBtFyeUTnAaP6xX-37" value="Находится" style="rhombus;whiteSpace=wrap;html=1;" vertex="1" parent="1">
          <mxGeometry x="290" y="250" width="150" height="60" as="geometry" />
        </mxCell>
        <mxCell id="IZnIiaBtFyeUTnAaP6xX-38" value="" style="rounded=1;whiteSpace=wrap;html=1;" vertex="1" parent="1">
          <mxGeometry x="60" y="346" width="150" height="60" as="geometry" />
        </mxCell>
        <mxCell id="IZnIiaBtFyeUTnAaP6xX-39" value="Лечится" style="rhombus;whiteSpace=wrap;html=1;" vertex="1" parent="1">
          <mxGeometry x="60" y="346" width="150" height="60" as="geometry" />
        </mxCell>
        <mxCell id="IZnIiaBtFyeUTnAaP6xX-40" value="N&lt;span style=&quot;color: rgba(0, 0, 0, 0); font-family: monospace; font-size: 0px; text-align: start; background-color: rgb(236, 236, 236);&quot;&gt;%3CmxGraphModel%3E%3Croot%3E%3CmxCell%20id%3D%220%22%2F%3E%3CmxCell%20id%3D%221%22%20parent%3D%220%22%2F%3E%3CmxCell%20id%3D%222%22%20value%3D%22%D0%9B%D0%B5%D0%BA%D0%B0%D1%80%D1%81%D1%82%D0%B2%D0%BE%22%20style%3D%22rounded%3D1%3BwhiteSpace%3Dwrap%3Bhtml%3D1%3B%22%20vertex%3D%221%22%20parent%3D%221%22%3E%3CmxGeometry%20x%3D%22180%22%20y%3D%22280%22%20width%3D%22150%22%20height%3D%2250%22%20as%3D%22geometry%22%2F%3E%3C%2FmxCell%3E%3C%2Froot%3E%3C%2FmxGraphModel%3E&lt;/span&gt;&lt;span style=&quot;color: rgba(0, 0, 0, 0); font-family: monospace; font-size: 0px; text-align: start; background-color: rgb(236, 236, 236);&quot;&gt;%3CmxGraphModel%3E%3Croot%3E%3CmxCell%20id%3D%220%22%2F%3E%3CmxCell%20id%3D%221%22%20parent%3D%220%22%2F%3E%3CmxCell%20id%3D%222%22%20value%3D%22%D0%9B%D0%B5%D0%BA%D0%B0%D1%80%D1%81%D1%82%D0%B2%D0%BE%22%20style%3D%22rounded%3D1%3BwhiteSpace%3Dwrap%3Bhtml%3D1%3B%22%20vertex%3D%221%22%20parent%3D%221%22%3E%3CmxGeometry%20x%3D%22180%22%20y%3D%22280%22%20width%3D%22150%22%20height%3D%2250%22%20as%3D%22geometry%22%2F%3E%3C%2FmxCell%3E%3C%2Froot%3E%3C%2FmxGraphModel%3E&lt;/span&gt;&lt;span style=&quot;color: rgba(0, 0, 0, 0); font-family: monospace; font-size: 0px; text-align: start; background-color: rgb(236, 236, 236);&quot;&gt;%3CmxGraphModel%3E%3Croot%3E%3CmxCell%20id%3D%220%22%2F%3E%3CmxCell%20id%3D%221%22%20parent%3D%220%22%2F%3E%3CmxCell%20id%3D%222%22%20value%3D%22%D0%9B%D0%B5%D0%BA%D0%B0%D1%80%D1%81%D1%82%D0%B2%D0%BE%22%20style%3D%22rounded%3D1%3BwhiteSpace%3Dwrap%3Bhtml%3D1%3B%22%20vertex%3D%221%22%20parent%3D%221%22%3E%3CmxGeometry%20x%3D%22180%22%20y%3D%22280%22%20width%3D%22150%22%20height%3D%2250%22%20as%3D%22geometry%22%2F%3E%3C%2FmxCell%3E%3C%2Froot%3E%3C%2FmxGraphModel%3E&lt;/span&gt;" style="edgeStyle=orthogonalEdgeStyle;rounded=0;orthogonalLoop=1;jettySize=auto;html=1;endArrow=none;endFill=0;" edge="1" parent="1" source="IZnIiaBtFyeUTnAaP6xX-38" target="IZnIiaBtFyeUTnAaP6xX-3">
          <mxGeometry x="0.467" relative="1" as="geometry">
            <mxPoint x="-150" y="380" as="sourcePoint" />
            <mxPoint x="-150" y="250" as="targetPoint" />
            <Array as="points">
              <mxPoint x="230" y="376" />
              <mxPoint x="230" y="660" />
              <mxPoint x="365" y="660" />
            </Array>
            <mxPoint as="offset" />
          </mxGeometry>
        </mxCell>
        <mxCell id="IZnIiaBtFyeUTnAaP6xX-42" value="1&lt;span style=&quot;color: rgba(0, 0, 0, 0); font-family: monospace; font-size: 0px; text-align: start; background-color: rgb(236, 236, 236);&quot;&gt;%3CmxGraphModel%3E%3Croot%3E%3CmxCell%20id%3D%220%22%2F%3E%3CmxCell%20id%3D%221%22%20parent%3D%220%22%2F%3E%3CmxCell%20id%3D%222%22%20value%3D%22N%26lt%3Bspan%20style%3D%26quot%3Bcolor%3A%20rgba(0%2C%200%2C%200%2C%200)%3B%20font-family%3A%20monospace%3B%20font-size%3A%200px%3B%20text-align%3A%20start%3B%20background-color%3A%20rgb(236%2C%20236%2C%20236)%3B%26quot%3B%26gt%3B%253CmxGraphModel%253E%253Croot%253E%253CmxCell%2520id%253D%25220%2522%252F%253E%253CmxCell%2520id%253D%25221%2522%2520parent%253D%25220%2522%252F%253E%253CmxCell%2520id%253D%25222%2522%2520value%253D%2522%25D0%259B%25D0%25B5%25D0%25BA%25D0%25B0%25D1%2580%25D1%2581%25D1%2582%25D0%25B2%25D0%25BE%2522%2520style%253D%2522rounded%253D1%253BwhiteSpace%253Dwrap%253Bhtml%253D1%253B%2522%2520vertex%253D%25221%2522%2520parent%253D%25221%2522%253E%253CmxGeometry%2520x%253D%2522180%2522%2520y%253D%2522280%2522%2520width%253D%2522150%2522%2520height%253D%252250%2522%2520as%253D%2522geometry%2522%252F%253E%253C%252FmxCell%253E%253C%252Froot%253E%253C%252FmxGraphModel%253E%26lt%3B%2Fspan%26gt%3B%26lt%3Bspan%20style%3D%26quot%3Bcolor%3A%20rgba(0%2C%200%2C%200%2C%200)%3B%20font-family%3A%20monospace%3B%20font-size%3A%200px%3B%20text-align%3A%20start%3B%20background-color%3A%20rgb(236%2C%20236%2C%20236)%3B%26quot%3B%26gt%3B%253CmxGraphModel%253E%253Croot%253E%253CmxCell%2520id%253D%25220%2522%252F%253E%253CmxCell%2520id%253D%25221%2522%2520parent%253D%25220%2522%252F%253E%253CmxCell%2520id%253D%25222%2522%2520value%253D%2522%25D0%259B%25D0%25B5%25D0%25BA%25D0%25B0%25D1%2580%25D1%2581%25D1%2582%25D0%25B2%25D0%25BE%2522%2520style%253D%2522rounded%253D1%253BwhiteSpace%253Dwrap%253Bhtml%253D1%253B%2522%2520vertex%253D%25221%2522%2520parent%253D%25221%2522%253E%253CmxGeometry%2520x%253D%2522180%2522%2520y%253D%2522280%2522%2520width%253D%2522150%2522%2520height%253D%252250%2522%2520as%253D%2522geometry%2522%252F%253E%253C%252FmxCell%253E%253C%252Froot%253E%253C%252FmxGraphModel%253E%26lt%3B%2Fspan%26gt%3B%26lt%3Bspan%20style%3D%26quot%3Bcolor%3A%20rgba(0%2C%200%2C%200%2C%200)%3B%20font-family%3A%20monospace%3B%20font-size%3A%200px%3B%20text-align%3A%20start%3B%20background-color%3A%20rgb(236%2C%20236%2C%20236)%3B%26quot%3B%26gt%3B%253CmxGraphModel%253E%253Croot%253E%253CmxCell%2520id%253D%25220%2522%252F%253E%253CmxCell%2520id%253D%25221%2522%2520parent%253D%25220%2522%252F%253E%253CmxCell%2520id%253D%25222%2522%2520value%253D%2522%25D0%259B%25D0%25B5%25D0%25BA%25D0%25B0%25D1%2580%25D1%2581%25D1%2582%25D0%25B2%25D0%25BE%2522%2520style%253D%2522rounded%253D1%253BwhiteSpace%253Dwrap%253Bhtml%253D1%253B%2522%2520vertex%253D%25221%2522%2520parent%253D%25221%2522%253E%253CmxGeometry%2520x%253D%2522180%2522%2520y%253D%2522280%2522%2520width%253D%2522150%2522%2520height%253D%252250%2522%2520as%253D%2522geometry%2522%252F%253E%253C%252FmxCell%253E%253C%252Froot%253E%253C%252FmxGraphModel%253E%26lt%3B%2Fspan%26gt%3B%22%20style%3D%22edgeStyle%3DorthogonalEdgeStyle%3Brounded%3D0%3BorthogonalLoop%3D1%3BjettySize%3Dauto%3Bhtml%3D1%3BendArrow%3Dnone%3BendFill%3D0%3B%22%20edge%3D%221%22%20parent%3D%221%22%3E%3CmxGeometry%20relative%3D%221%22%20as%3D%22geometry%22%3E%3CmxPoint%20x%3D%22255%22%20y%3D%22460%22%20as%3D%22sourcePoint%22%2F%3E%3CmxPoint%20x%3D%22255%22%20y%3D%22330%22%20as%3D%22targetPoint%22%2F%3E%3C%2FmxGeometry%3E%3C%2FmxCell%3E%3C%2Froot%3E%3C%2FmxGraphModel%3E&lt;/span&gt;" style="edgeStyle=orthogonalEdgeStyle;rounded=0;orthogonalLoop=1;jettySize=auto;html=1;endArrow=none;endFill=0;" edge="1" parent="1" source="IZnIiaBtFyeUTnAaP6xX-37" target="IZnIiaBtFyeUTnAaP6xX-23">
          <mxGeometry relative="1" as="geometry">
            <mxPoint x="280" y="440" as="sourcePoint" />
            <mxPoint x="280" y="310" as="targetPoint" />
          </mxGeometry>
        </mxCell>
        <mxCell id="IZnIiaBtFyeUTnAaP6xX-43" value="N&lt;span style=&quot;color: rgba(0, 0, 0, 0); font-family: monospace; font-size: 0px; text-align: start; background-color: rgb(236, 236, 236);&quot;&gt;%3CmxGraphModel%3E%3Croot%3E%3CmxCell%20id%3D%220%22%2F%3E%3CmxCell%20id%3D%221%22%20parent%3D%220%22%2F%3E%3CmxCell%20id%3D%222%22%20value%3D%22%D0%9B%D0%B5%D0%BA%D0%B0%D1%80%D1%81%D1%82%D0%B2%D0%BE%22%20style%3D%22rounded%3D1%3BwhiteSpace%3Dwrap%3Bhtml%3D1%3B%22%20vertex%3D%221%22%20parent%3D%221%22%3E%3CmxGeometry%20x%3D%22180%22%20y%3D%22280%22%20width%3D%22150%22%20height%3D%2250%22%20as%3D%22geometry%22%2F%3E%3C%2FmxCell%3E%3C%2Froot%3E%3C%2FmxGraphModel%3E&lt;/span&gt;&lt;span style=&quot;color: rgba(0, 0, 0, 0); font-family: monospace; font-size: 0px; text-align: start; background-color: rgb(236, 236, 236);&quot;&gt;%3CmxGraphModel%3E%3Croot%3E%3CmxCell%20id%3D%220%22%2F%3E%3CmxCell%20id%3D%221%22%20parent%3D%220%22%2F%3E%3CmxCell%20id%3D%222%22%20value%3D%22%D0%9B%D0%B5%D0%BA%D0%B0%D1%80%D1%81%D1%82%D0%B2%D0%BE%22%20style%3D%22rounded%3D1%3BwhiteSpace%3Dwrap%3Bhtml%3D1%3B%22%20vertex%3D%221%22%20parent%3D%221%22%3E%3CmxGeometry%20x%3D%22180%22%20y%3D%22280%22%20width%3D%22150%22%20height%3D%2250%22%20as%3D%22geometry%22%2F%3E%3C%2FmxCell%3E%3C%2Froot%3E%3C%2FmxGraphModel%3E&lt;/span&gt;&lt;span style=&quot;color: rgba(0, 0, 0, 0); font-family: monospace; font-size: 0px; text-align: start; background-color: rgb(236, 236, 236);&quot;&gt;%3CmxGraphModel%3E%3Croot%3E%3CmxCell%20id%3D%220%22%2F%3E%3CmxCell%20id%3D%221%22%20parent%3D%220%22%2F%3E%3CmxCell%20id%3D%222%22%20value%3D%22%D0%9B%D0%B5%D0%BA%D0%B0%D1%80%D1%81%D1%82%D0%B2%D0%BE%22%20style%3D%22rounded%3D1%3BwhiteSpace%3Dwrap%3Bhtml%3D1%3B%22%20vertex%3D%221%22%20parent%3D%221%22%3E%3CmxGeometry%20x%3D%22180%22%20y%3D%22280%22%20width%3D%22150%22%20height%3D%2250%22%20as%3D%22geometry%22%2F%3E%3C%2FmxCell%3E%3C%2Froot%3E%3C%2FmxGraphModel%3E&lt;/span&gt;" style="edgeStyle=orthogonalEdgeStyle;rounded=0;orthogonalLoop=1;jettySize=auto;html=1;endArrow=none;endFill=0;" edge="1" parent="1" source="IZnIiaBtFyeUTnAaP6xX-30" target="IZnIiaBtFyeUTnAaP6xX-37">
          <mxGeometry relative="1" as="geometry">
            <mxPoint x="260" y="450" as="sourcePoint" />
            <mxPoint x="260" y="320" as="targetPoint" />
          </mxGeometry>
        </mxCell>
        <mxCell id="IZnIiaBtFyeUTnAaP6xX-44" value="N&lt;span style=&quot;color: rgba(0, 0, 0, 0); font-family: monospace; font-size: 0px; text-align: start; background-color: rgb(236, 236, 236);&quot;&gt;%3CmxGraphModel%3E%3Croot%3E%3CmxCell%20id%3D%220%22%2F%3E%3CmxCell%20id%3D%221%22%20parent%3D%220%22%2F%3E%3CmxCell%20id%3D%222%22%20value%3D%22%D0%9B%D0%B5%D0%BA%D0%B0%D1%80%D1%81%D1%82%D0%B2%D0%BE%22%20style%3D%22rounded%3D1%3BwhiteSpace%3Dwrap%3Bhtml%3D1%3B%22%20vertex%3D%221%22%20parent%3D%221%22%3E%3CmxGeometry%20x%3D%22180%22%20y%3D%22280%22%20width%3D%22150%22%20height%3D%2250%22%20as%3D%22geometry%22%2F%3E%3C%2FmxCell%3E%3C%2Froot%3E%3C%2FmxGraphModel%3E&lt;/span&gt;&lt;span style=&quot;color: rgba(0, 0, 0, 0); font-family: monospace; font-size: 0px; text-align: start; background-color: rgb(236, 236, 236);&quot;&gt;%3CmxGraphModel%3E%3Croot%3E%3CmxCell%20id%3D%220%22%2F%3E%3CmxCell%20id%3D%221%22%20parent%3D%220%22%2F%3E%3CmxCell%20id%3D%222%22%20value%3D%22%D0%9B%D0%B5%D0%BA%D0%B0%D1%80%D1%81%D1%82%D0%B2%D0%BE%22%20style%3D%22rounded%3D1%3BwhiteSpace%3Dwrap%3Bhtml%3D1%3B%22%20vertex%3D%221%22%20parent%3D%221%22%3E%3CmxGeometry%20x%3D%22180%22%20y%3D%22280%22%20width%3D%22150%22%20height%3D%2250%22%20as%3D%22geometry%22%2F%3E%3C%2FmxCell%3E%3C%2Froot%3E%3C%2FmxGraphModel%3E&lt;/span&gt;&lt;span style=&quot;color: rgba(0, 0, 0, 0); font-family: monospace; font-size: 0px; text-align: start; background-color: rgb(236, 236, 236);&quot;&gt;%3CmxGraphModel%3E%3Croot%3E%3CmxCell%20id%3D%220%22%2F%3E%3CmxCell%20id%3D%221%22%20parent%3D%220%22%2F%3E%3CmxCell%20id%3D%222%22%20value%3D%22%D0%9B%D0%B5%D0%BA%D0%B0%D1%80%D1%81%D1%82%D0%B2%D0%BE%22%20style%3D%22rounded%3D1%3BwhiteSpace%3Dwrap%3Bhtml%3D1%3B%22%20vertex%3D%221%22%20parent%3D%221%22%3E%3CmxGeometry%20x%3D%22180%22%20y%3D%22280%22%20width%3D%22150%22%20height%3D%2250%22%20as%3D%22geometry%22%2F%3E%3C%2FmxCell%3E%3C%2Froot%3E%3C%2FmxGraphModel%3E&lt;/span&gt;" style="edgeStyle=orthogonalEdgeStyle;rounded=0;orthogonalLoop=1;jettySize=auto;html=1;endArrow=none;endFill=0;" edge="1" parent="1" source="IZnIiaBtFyeUTnAaP6xX-38" target="IZnIiaBtFyeUTnAaP6xX-30">
          <mxGeometry relative="1" as="geometry">
            <mxPoint x="230" y="480" as="sourcePoint" />
            <mxPoint x="230" y="350" as="targetPoint" />
          </mxGeometry>
        </mxCell>
        <mxCell id="IZnIiaBtFyeUTnAaP6xX-45" value="N" style="edgeStyle=orthogonalEdgeStyle;rounded=0;orthogonalLoop=1;jettySize=auto;html=1;endArrow=none;endFill=0;" edge="1" parent="1" source="IZnIiaBtFyeUTnAaP6xX-16" target="IZnIiaBtFyeUTnAaP6xX-38">
          <mxGeometry x="-0.6648" relative="1" as="geometry">
            <mxPoint x="110" y="680" as="sourcePoint" />
            <mxPoint x="110" y="550" as="targetPoint" />
            <Array as="points">
              <mxPoint x="230" y="475" />
              <mxPoint x="230" y="376" />
            </Array>
            <mxPoint as="offset" />
          </mxGeometry>
        </mxCell>
        <mxCell id="IZnIiaBtFyeUTnAaP6xX-46" value="Врач" style="rounded=1;whiteSpace=wrap;html=1;" vertex="1" parent="1">
          <mxGeometry x="290" y="580" width="150" height="50" as="geometry" />
        </mxCell>
        <mxCell id="IZnIiaBtFyeUTnAaP6xX-47" value="Id" style="ellipse;whiteSpace=wrap;html=1;fontStyle=4" vertex="1" parent="1">
          <mxGeometry x="520" y="570" width="120" height="40" as="geometry" />
        </mxCell>
        <mxCell id="IZnIiaBtFyeUTnAaP6xX-48" value="ФИО" style="ellipse;whiteSpace=wrap;html=1;fontStyle=0" vertex="1" parent="1">
          <mxGeometry x="520" y="600" width="120" height="40" as="geometry" />
        </mxCell>
        <mxCell id="IZnIiaBtFyeUTnAaP6xX-49" value="Адрес" style="ellipse;whiteSpace=wrap;html=1;fontStyle=0" vertex="1" parent="1">
          <mxGeometry x="520" y="630" width="120" height="40" as="geometry" />
        </mxCell>
        <mxCell id="IZnIiaBtFyeUTnAaP6xX-50" value="" style="edgeStyle=orthogonalEdgeStyle;rounded=0;orthogonalLoop=1;jettySize=auto;html=1;endArrow=none;endFill=0;" edge="1" parent="1" source="IZnIiaBtFyeUTnAaP6xX-48" target="IZnIiaBtFyeUTnAaP6xX-46">
          <mxGeometry relative="1" as="geometry">
            <Array as="points">
              <mxPoint x="470" y="620" />
              <mxPoint x="470" y="605" />
            </Array>
          </mxGeometry>
        </mxCell>
        <mxCell id="IZnIiaBtFyeUTnAaP6xX-51" value="" style="rounded=0;orthogonalLoop=1;jettySize=auto;html=1;endArrow=none;endFill=0;edgeStyle=orthogonalEdgeStyle;" edge="1" parent="1" source="IZnIiaBtFyeUTnAaP6xX-49" target="IZnIiaBtFyeUTnAaP6xX-46">
          <mxGeometry relative="1" as="geometry">
            <mxPoint x="310" y="550" as="sourcePoint" />
            <mxPoint x="355" y="610" as="targetPoint" />
            <Array as="points">
              <mxPoint x="470" y="650" />
              <mxPoint x="470" y="605" />
            </Array>
          </mxGeometry>
        </mxCell>
        <mxCell id="IZnIiaBtFyeUTnAaP6xX-52" value="" style="rounded=0;orthogonalLoop=1;jettySize=auto;html=1;endArrow=none;endFill=0;edgeStyle=orthogonalEdgeStyle;" edge="1" parent="1" source="IZnIiaBtFyeUTnAaP6xX-47" target="IZnIiaBtFyeUTnAaP6xX-46">
          <mxGeometry relative="1" as="geometry">
            <mxPoint x="360" y="560" as="sourcePoint" />
            <mxPoint x="405" y="650" as="targetPoint" />
            <Array as="points">
              <mxPoint x="470" y="590" />
              <mxPoint x="470" y="605" />
            </Array>
          </mxGeometry>
        </mxCell>
        <mxCell id="IZnIiaBtFyeUTnAaP6xX-55" value="Паспорт" style="ellipse;whiteSpace=wrap;html=1;fontStyle=0" vertex="1" parent="1">
          <mxGeometry x="520" y="660" width="120" height="40" as="geometry" />
        </mxCell>
        <mxCell id="IZnIiaBtFyeUTnAaP6xX-56" value="Специальность" style="ellipse;whiteSpace=wrap;html=1;fontStyle=0" vertex="1" parent="1">
          <mxGeometry x="520" y="690" width="120" height="40" as="geometry" />
        </mxCell>
        <mxCell id="IZnIiaBtFyeUTnAaP6xX-57" value="Стаж" style="ellipse;whiteSpace=wrap;html=1;fontStyle=0" vertex="1" parent="1">
          <mxGeometry x="520" y="720" width="120" height="40" as="geometry" />
        </mxCell>
        <mxCell id="IZnIiaBtFyeUTnAaP6xX-58" value="N" style="edgeStyle=orthogonalEdgeStyle;rounded=0;orthogonalLoop=1;jettySize=auto;html=1;endArrow=none;endFill=0;" edge="1" parent="1" source="IZnIiaBtFyeUTnAaP6xX-46" target="IZnIiaBtFyeUTnAaP6xX-38">
          <mxGeometry x="-0.8026" relative="1" as="geometry">
            <mxPoint x="320" y="569" as="sourcePoint" />
            <mxPoint x="240" y="470" as="targetPoint" />
            <Array as="points">
              <mxPoint x="230" y="600" />
              <mxPoint x="230" y="376" />
            </Array>
            <mxPoint as="offset" />
          </mxGeometry>
        </mxCell>
      </root>
    </mxGraphModel>
  </diagram>
</mxfile>
